# xmcd
#
# Track frame offsets:
#	150
#	31340
#	70476
#	84942
#	135434
#	197171
#	211859
#
# Disc length: 3976 seconds
#
# Revision: 1
# Processed by: cddbd v1.5.2PL0 Copyright (c) Steve Scherf et al.
# Submitted via: audiograbber 1.83.01
#
DISCID=5a0f8607
DTITLE=Grateful Dead - 81-12-31 Oakland Auditorium Arena, Oakland CA
DYEAR=1900
DGENRE=
TTITLE0=Ken Kesey > NYE Countdown
TTITLE1=Iko Iko
TTITLE2=Playing In The Band
TTITLE3=Playing In The Band Jam
TTITLE4=Terrapin Station
TTITLE5=Playing In The Band Reprise
TTITLE6=Drums > Space >
EXTD=
EXTT0=
EXTT1=
EXTT2=
EXTT3=
EXTT4=
EXTT5=
EXTT6=
PLAYORDER=
